<?xml version="1.0" encoding="UTF-8" standalone="no"?>
        <svg 
    viewBox="10.3271484375 -85.693359375 448.0224609375 56.8359375"
    width="437.6953125"
    height="142.529296875"
   xmlns="http://www.w3.org/2000/svg"
   xmlns:svg="http://www.w3.org/2000/svg">
   <path d="M58.37-42.92L58.37-89.58L58.37-97.34L78.44-89.58L88.48-89.58L88.48-101.22L56.25-101.22Q52.22-94.41 47.02-86.50Q41.82-78.59 36.91-72.58L36.91-72.58Q46.00-66.87 51.27-58.89Q56.54-50.90 58.37-42.92L58.37-42.92ZM10.33 14.43L10.33-116.53L10.33-124.66L32.23-116.53L37.50-116.53L47.24-125.98L66.14-108.91Q64.45-106.79 59.40-106.79L59.40-106.79L58.67-105.47L88.48-105.47L88.48-126.93L114.33-124.37Q114.11-122.75 113.01-121.69Q111.91-120.63 108.76-120.12L108.76-120.12L108.76-105.47L118.95-105.47L129.27-119.53Q129.27-119.53 131.14-117.99Q133.01-116.46 135.90-114.00Q138.79-111.55 141.94-108.80Q145.09-106.05 147.58-103.64L147.58-103.64Q146.92-101.22 143.26-101.22L143.26-101.22L108.76-101.22L108.76-89.58L117.11-89.58L125.83-98.88L143.70-85.47Q143.04-84.74 141.72-83.94Q140.41-83.13 138.28-82.62L138.28-82.62L138.28-39.77Q138.21-39.26 135.50-38.16Q132.79-37.06 129.02-36.15Q125.24-35.23 122.09-35.23L122.09-35.23L118.65-35.23L118.65-43.07L109.94-43.07Q113.96-34.42 120.45-28.56Q126.93-22.71 134.40-19.04Q141.87-15.38 148.97-13.33L148.97-13.33L148.68-12.01Q142.82-10.18 138.87-4.76Q134.91 0.66 133.37 8.13L133.37 8.13Q126.78 2.05 122.06-4.91Q117.33-11.87 114.11-20.73Q110.89-29.59 108.76-41.53L108.76-41.53L108.76 7.03Q108.76 8.13 106.27 9.78Q103.78 11.43 100.01 12.78Q96.24 14.14 92.43 14.14L92.43 14.14L88.48 14.14L88.48-19.63Q79.83-10.84 68.33-3.99Q56.84 2.86 42.77 7.98L42.77 7.98L41.53 6.30Q55.52-2.71 65.59-15.78Q75.66-28.86 81.15-43.07L81.15-43.07L77.56-43.07L77.56-39.62Q77.56-38.67 75.11-37.24Q72.66-35.82 68.88-34.72Q65.11-33.62 61.08-33.62L61.08-33.62L59.25-33.62Q59.03-23.00 53.98-16.66Q48.93-10.33 36.47-10.18L36.47-10.18Q36.47-14.36 35.93-19.26Q35.38-24.17 34.50-26.07L34.50-26.07Q33.40-28.27 30.32-29.74L30.32-29.74L30.32 8.13Q30.32 8.86 28.34 10.36Q26.37 11.87 22.71 13.15Q19.04 14.43 13.92 14.43L13.92 14.43L10.33 14.43ZM88.48-47.24L88.48-64.53L77.56-64.53L77.56-47.24L88.48-47.24ZM118.65-64.53L108.76-64.53L108.76-47.24L118.65-47.24L118.65-64.53ZM77.56-68.70L88.48-68.70L88.48-85.33L77.56-85.33L77.56-68.70ZM108.76-85.33L108.76-68.70L118.65-68.70L118.65-85.33L108.76-85.33ZM38.82-112.35L30.32-112.35L30.32-32.23L35.23-32.23Q37.13-32.23 38.23-33.03L38.23-33.03Q40.80-34.64 40.80-40.65L40.80-40.65Q40.80-48.41 39.11-56.73Q37.43-65.04 33.18-72.14L33.18-72.14Q34.20-77.20 35.34-84.30Q36.47-91.41 37.43-98.88Q38.38-106.35 38.82-112.35L38.82-112.35ZM205.52-127.81L205.52-127.81L234.89-125.10Q234.67-123.27 233.42-122.24Q232.18-121.22 229.32-120.92L229.32-120.92Q229.10-112.72 228.99-104.70Q228.88-96.68 228.44-88.92L228.44-88.92L258.76-88.92L270.63-100.63L289.67-83.86Q288.65-82.69 287.04-81.92Q285.42-81.15 282.71-80.71L282.71-80.71Q281.84-55.30 280.26-37.83Q278.69-20.36 275.76-9.92Q272.83 0.51 268.07 4.83L268.07 4.83Q263.45 9.08 257.56 10.99Q251.66 12.89 241.63 12.89L241.63 12.89Q241.77 7.69 240.75 3.74Q239.72-0.22 237.16-2.71L237.16-2.71Q231.52-8.28 217.38-11.13L217.38-11.13L217.38-12.60Q222.14-12.30 227.67-11.98Q233.20-11.65 237.93-11.46Q242.65-11.28 244.92-11.28L244.92-11.28Q248.88-11.28 250.78-13.18L250.78-13.18Q254.96-16.55 257.12-35.41Q259.28-54.27 260.38-84.74L260.38-84.74L228.15-84.74Q227.05-69.43 223.65-55.37Q220.24-41.31 212.59-28.75Q204.93-16.19 191.27-5.42Q177.61 5.35 156.01 14.14L156.01 14.14L154.61 12.16Q169.41 1.61 178.93-9.63Q188.45-20.87 193.84-32.96Q199.22-45.04 201.71-57.97Q204.20-70.90 204.93-84.74L204.93-84.74L162.01-84.74L160.62-88.92L205.22-88.92Q205.52-98.29 205.52-108.00Q205.52-117.70 205.52-127.81ZM376.83-111.47L378.88-128.10L404.22-125.10Q403.56-121.29 398.22-120.63L398.22-120.63L397.05-111.47L407.08-111.47L416.09-120.78L433.81-107.52Q433.15-106.79 431.76-105.98Q430.37-105.18 428.10-104.74L428.10-104.74L428.10-90.45L434.99-102.47Q434.99-102.47 437.26-100.01Q439.53-97.56 442.57-94.15Q445.61-90.75 447.73-87.89L447.73-87.89Q447.07-85.47 443.85-85.47L443.85-85.47L354.93-85.47L353.69-89.72L373.68-89.72L376.17-107.23L364.53-107.23L363.13-111.47L376.83-111.47ZM393.75-89.72L408.62-89.72L408.62-107.23L396.46-107.23L393.75-89.72ZM364.82-10.77L364.82-33.76L364.82-41.67L386.43-33.76L395.21-33.76L395.21-47.97L413.09-46.51L413.09-50.24L381.59-50.24Q381.59-49.44 379.03-48.05Q376.46-46.66 372.55-45.52Q368.63-44.38 364.67-44.38L364.67-44.38L361.96-44.38L361.96-82.62L382.47-74.85L411.62-74.85L420.63-84.74L439.67-70.53Q438.94-69.58 437.48-68.70Q436.01-67.82 433.67-67.38L433.67-67.38L433.67-51.12Q433.67-50.61 430.81-49.48Q427.95-48.34 424.00-47.35Q420.04-46.36 416.67-46.36L416.67-46.36L415.06-46.36L420.48-45.92Q420.19-44.68 419.38-43.80Q418.58-42.92 416.24-42.48L416.24-42.48L416.24-33.76L420.63-33.76L429.27-44.97Q429.27-44.97 431.98-42.85Q434.69-40.72 438.32-37.68Q441.94-34.64 444.87-31.93L444.87-31.93Q444.43-29.52 440.84-29.52L440.84-29.52L416.24-29.52L416.24-10.77L422.53-10.77L431.69-23.07Q431.69-23.07 434.51-20.76Q437.33-18.46 441.14-15.16Q444.95-11.87 448.02-9.01L448.02-9.01Q447.36-6.59 443.85-6.59L443.85-6.59L416.24-6.59L416.24 9.45Q416.24 10.11 413.56 11.28Q410.89 12.45 406.90 13.44Q402.91 14.43 399.02 14.43L399.02 14.43L395.21 14.43L395.21-6.59L349.80-6.59L348.63-10.77L364.82-10.77ZM384.30-10.77L395.21-10.77L395.21-29.52L384.30-29.52L384.30-10.77ZM381.59-70.68L381.59-54.42L413.09-54.42L413.09-70.68L381.59-70.68ZM311.13-1.98L302.12-26.07L319.48-29.22L319.48-65.84L306.74-65.84L305.57-70.02L319.48-70.02L319.48-107.52L305.27-107.52L304.03-111.77L334.50-111.77L343.95-125.68Q343.95-125.68 345.67-124.15Q347.39-122.61 350.02-120.19Q352.66-117.77 355.52-115.03Q358.37-112.28 360.57-109.94L360.57-109.94Q360.13-107.52 356.54-107.52L356.54-107.52L340.50-107.52L340.50-72.73L346.51-82.76Q346.51-82.76 348.85-80.35Q351.20-77.93 354.31-74.52Q357.42-71.12 359.69-68.26L359.69-68.26Q359.25-65.84 355.81-65.84L355.81-65.84L340.50-65.84L340.50-33.47L359.69-37.65L359.99-36.18Q353.47-30.98 342.44-23.36Q331.42-15.75 315.45-6.15L315.45-6.15Q314.21-2.64 311.13-1.98L311.13-1.98Z"/>
    </svg>
        