<svg width="281" height="281" version="1.1" xmlns="http://www.w3.org/2000/svg" xmlns:xlink="http://www.w3.org/1999/xlink"><path d="M230.42 85.85L230.42 85.85Q230.42 89.22 225.08 96.53L225.08 96.53Q223.40 98.50 222.55 100.18L222.55 100.18Q215.81 113.67 211.03 145.99L211.03 145.99Q207.66 169.59 204.01 180.27L204.01 180.27Q193.33 212.58 183.21 224.10L183.21 224.10Q177.59 230.57 171.41 233.38L171.41 233.38L168.60 234.50Q164.67 235.62 161.58 233.94L161.58 233.94L158.77 231.41L158.48 231.13Q157.92 230.29 154.27 222.42L154.27 222.42Q153.71 221.29 153.43 220.73L153.43 220.73L140.78 201.62L139.66 199.38Q143.59 199.38 155.39 203.31L155.39 203.31Q161.01 205.28 165.23 205.28L165.23 205.28Q171.69 205.28 176.47 196.57L176.47 196.57Q184.06 182.80 193.61 145.14L193.61 145.14Q206.54 94.84 197.26 87.82L197.26 87.82Q193.89 85.01 148.09 93.72L148.09 93.72Q146.40 94.00 145.28 94.28L145.28 94.28Q139.94 121.82 122.24 154.42L122.24 154.42Q118.30 161.72 114.65 167.06L114.65 167.06Q100.60 187.85 72.78 206.68L72.78 206.68Q58.73 216.52 46.93 221.01L46.93 221.01Q34.28 225.79 28.10 224.38L28.10 224.38L28.10 223.54L63.79 197.41Q73.90 189.54 81.21 181.95L81.21 181.95Q111.84 150.48 127.86 98.50L127.86 98.50Q114.37 99.90 96.38 105.24L96.38 105.24Q79.24 110.58 71.37 107.21L71.37 107.21Q65.47 104.96 60.42 98.22L60.42 98.22Q60.42 94.56 62.94 94.28L62.94 94.28Q64.35 94.00 82.33 93.72L82.33 93.72Q83.74 93.72 84.58 93.72L84.58 93.72Q109.03 92.03 130.38 88.38L130.38 88.38Q135.16 58.31 135.44 52.97L135.44 52.97Q136.29 33.59 130.10 20.94L130.10 20.94Q130.10 17.29 134.04 16.16L134.04 16.16Q143.03 14.48 155.39 23.75L155.39 23.75Q159.05 26.56 161.58 29.37L161.58 29.37Q161.58 31.90 157.36 41.73L157.36 41.73L156.52 44.26Q150.90 62.81 146.68 85.01L146.68 85.01Q152.86 84.73 172.53 79.11L172.53 79.11Q176.75 77.98 180.12 77.14L180.12 77.14L199.79 70.68Q205.13 69.83 208.78 70.96L208.78 70.96Q223.11 75.74 230.42 85.85Z" stroke="#000" fill="black" /></svg>