<svg width="281" height="281" version="1.1" xmlns="http://www.w3.org/2000/svg" xmlns:xlink="http://www.w3.org/1999/xlink"><path d="M239.97 96.10L239.97 96.10L236.88 97.23Q186.02 97.79 148.37 105.09L148.37 105.09L116.33 112.96L114.37 113.52Q109.31 114.37 104.25 111.28L104.25 111.28Q101.72 109.87 100.32 107.90L100.32 107.90Q100.60 104.53 140.78 99.47L140.78 99.47Q141.62 99.47 142.19 99.47L142.19 99.47L143.31 97.79L146.96 72.78L130.10 75.03Q123.64 75.03 119.99 71.09L119.99 71.09L121.39 68.85L147.53 65.75Q149.21 48.33 148.93 45.80L148.93 45.80Q148.37 39.34 145.84 35.69L145.84 35.69Q145.84 31.47 148.09 30.35L148.09 30.35Q159.89 31.19 168.04 41.31L168.04 41.31L161.86 61.82Q165.79 61.82 178.44 57.04L178.44 57.04Q185.18 54.80 189.96 54.80L189.96 54.80L202.88 61.54Q207.66 64.63 207.66 69.41L207.66 69.41L196.42 83.74L193.33 89.92L217.78 84.86Q230.42 83.74 238.01 91.04L238.01 91.04Q241.10 94.42 239.97 96.10ZM185.46 68.00L185.46 68.00Q178.44 65.47 166.35 68.85L166.35 68.85L159.89 70.53L153.15 97.23L177.03 93.29Q177.87 93.01 178.72 93.01L178.72 93.01L180.12 91.61Q185.46 76.99 185.46 68.00ZM232.67 209.63L232.67 209.63Q231.54 211.59 225.08 212.72L225.08 212.72Q206.82 211.59 184.34 213.28L184.34 213.28Q177.59 213.84 170.01 214.68L170.01 214.68L167.76 259.64Q166.07 279.03 162.14 279.31L162.14 279.31L161.01 278.75Q155.96 271.73 156.24 223.68L156.24 223.68Q156.24 218.90 156.24 216.93L156.24 216.93Q125.89 220.02 108.47 230.14L108.47 230.14Q102.28 230.14 100.60 224.24L100.60 224.24Q100.32 223.11 100.32 221.99L100.32 221.99Q100.32 219.46 105.94 214.40L105.94 214.40Q108.75 211.87 109.59 210.19L109.59 210.19Q116.33 198.39 115.21 186.30L115.21 186.30Q115.21 184.90 114.93 183.49L114.93 183.49Q115.49 175.91 127.57 187.43L127.57 187.43L131.23 191.64Q130.67 193.89 124.20 203.73L124.20 203.73Q119.99 210.47 119.14 215.25L119.14 215.25L120.27 216.09Q149.49 209.91 155.96 208.78L155.96 208.78L156.24 182.93L138.81 183.21L131.79 181.81Q129.54 180.96 127.57 179.56L127.57 179.56Q127.57 177.03 130.67 176.47L130.67 176.47Q131.51 176.47 152.58 173.94L152.58 173.94Q154.27 173.66 155.39 173.38L155.39 173.38Q158.48 167.76 152.30 155.11L152.30 155.11Q151.18 153.15 150.90 152.02L150.90 152.02L138.53 154.55L137.97 160.73Q135.16 160.73 131.23 156.24L131.23 156.24L129.82 155.11Q124.20 138.53 115.77 123.08L115.77 123.08Q115.77 121.11 116.90 120.83L116.90 120.83Q127.57 125.05 148.37 119.14L148.37 119.14Q158.48 116.05 161.86 115.21L161.86 115.21L180.12 109.59Q182.65 109.03 185.18 109.03L185.18 109.03L196.14 114.65Q201.76 118.58 200.35 122.80L200.35 122.80Q191.08 131.23 188.83 137.69L188.83 137.69L194.45 142.19Q195.58 143.31 195.58 145.00L195.58 145.00L166.91 149.49Q164.67 149.77 162.70 150.34L162.70 150.34L170.85 155.11L173.10 157.92Q172.53 162.98 171.41 168.60L171.41 168.60L191.64 163.26Q200.07 162.42 205.41 168.04L205.41 168.04L204.29 170.57L170.85 179.56Q170.29 181.81 169.72 198.67L169.72 198.67Q169.72 202.60 169.16 205.69L169.16 205.69Q174.50 205.69 194.45 200.92L194.45 200.92Q214.12 196.42 223.96 202.04L223.96 202.04Q230.42 205.97 230.98 206.25L230.98 206.25Q232.39 207.94 232.67 209.63ZM179.56 122.52L179.56 119.99Q174.78 116.90 137.97 127.86L137.97 127.86Q135.16 128.70 133.48 129.26L133.48 129.26L137.41 146.96Q150.62 144.15 176.19 137.97L176.19 137.97L179.56 122.52ZM103.13 71.94L103.13 71.94Q103.13 74.75 97.23 76.71L97.23 76.71L68.56 86.55Q66.60 87.39 64.91 88.23L64.91 88.23Q66.32 88.80 72.78 94.14L72.78 94.14Q73.62 94.98 74.18 95.26L74.18 95.26L73.34 125.61L87.67 124.48Q95.54 124.76 96.10 128.70L96.10 128.70Q96.95 134.04 80.09 138.81L80.09 138.81L72.78 140.78L71.09 179.56L72.50 179.56L98.07 166.35L100.32 166.35L100.32 169.44Q92.17 177.31 68.56 193.05L68.56 193.05Q59.85 198.95 54.51 203.16L54.51 203.16L37.65 216.09Q27.54 213.84 19.39 209.06L19.39 209.06Q18.27 207.10 18.27 204.01L18.27 204.01Q19.95 202.32 26.98 201.20L26.98 201.20Q29.22 200.92 30.63 200.07L30.63 200.07L59.29 186.02L59.29 145.28Q42.15 150.90 32.88 146.40L32.88 146.40Q30.91 145.56 29.51 144.15L29.51 144.15Q29.79 142.19 33.16 140.78L33.16 140.78L41.87 138.53L59.85 132.63Q59.57 130.38 60.13 112.12L60.13 112.12Q60.42 97.51 55.36 90.20L55.36 90.20Q48.61 91.04 42.71 90.20L42.71 90.20Q36.25 89.36 32.88 86.27L32.88 86.27Q33.16 84.02 36.53 82.90L36.53 82.90Q48.89 81.49 73.90 71.09L73.90 71.09L84.58 67.16Q90.20 66.32 95.82 67.72L95.82 67.72Q100.88 69.13 103.13 71.94Z" stroke="#000" fill="black" /></svg>