<svg width="281" height="281" version="1.1" xmlns="http://www.w3.org/2000/svg" xmlns:xlink="http://www.w3.org/1999/xlink"><path d="M245.88 218.12L247.84 220.93L246.16 222.33Q216.09 225.14 200.35 224.02L200.35 224.02Q186.30 213.62 153.15 168.66L153.15 168.66Q149.77 163.88 147.81 161.64L147.81 161.64L147.81 238.91Q147.81 256.05 143.03 261.67L143.03 261.67L139.66 264.76Q133.19 264.48 129.54 243.97L129.54 243.97Q128.70 239.19 128.70 236.66L128.70 236.66Q128.70 233.85 130.67 226.27L130.67 226.27Q136.00 208.28 135.72 170.35L135.72 170.35Q135.72 164.45 135.72 161.64L135.72 161.64Q109.87 201.82 75.31 220.37L75.31 220.37Q70.25 223.18 64.91 225.42L64.91 225.42Q53.95 229.64 51.70 229.64L51.70 229.64Q49.18 229.64 46.37 229.08L46.37 229.08L46.37 228.23L82.90 203.51Q116.05 179.06 125.89 153.49L125.89 153.49L108.47 155.74Q108.19 156.02 106.78 159.39L106.78 159.39Q106.50 159.95 105.94 160.23L105.94 160.23L104.25 159.67Q98.07 155.74 94.98 138.88L94.98 138.88Q93.57 132.13 92.73 129.60L92.73 129.60Q88.23 114.43 81.77 102.35L81.77 102.35Q81.77 100.10 83.18 98.97L83.18 98.97Q95.54 102.35 116.90 97.01L116.90 97.01Q129.54 93.92 135.16 93.07L135.16 93.07L136.00 92.23L135.72 73.12L114.37 74.81Q109.59 74.53 105.94 73.12L105.94 73.12Q103.69 72.28 101.72 70.59L101.72 70.59Q102.57 68.06 105.66 67.22L105.66 67.22Q110.43 66.94 132.35 62.16L132.35 62.16L135.16 61.60Q135.16 45.86 124.48 31.53L124.48 31.53L124.48 27.88Q128.70 22.54 143.87 31.25L143.87 31.25Q151.18 35.47 153.15 38.56L153.15 38.56Q154.27 40.53 150.05 55.42L150.05 55.42Q149.77 56.26 149.49 56.82L149.49 56.82L172.25 50.36Q182.65 48.67 189.11 55.14L189.11 55.14Q189.11 57.95 185.46 59.07L185.46 59.07L149.21 69.47L147.81 70.59L147.24 89.98Q152.86 90.26 170.57 86.61L170.57 86.61Q182.37 84.08 191.08 84.92L191.08 84.92L205.13 94.20Q208.22 96.73 210.19 99.25L210.19 99.25Q210.19 103.47 204.29 108.53L204.29 108.53Q201.76 110.49 200.63 111.90L200.63 111.90Q198.67 114.71 189.11 136.63L189.11 136.63L183.21 148.15Q181.81 150.40 180.68 151.24L180.68 151.24Q178.15 153.21 173.38 153.21L173.38 153.21Q170.57 150.68 170.57 147.87L170.57 147.87Q154.83 148.43 147.81 150.68L147.81 150.68Q179.00 180.46 183.77 184.40L183.77 184.40Q205.41 202.94 237.73 215.03L237.73 215.03Q241.66 216.43 245.88 218.12L245.88 218.12ZM183.21 97.29L183.21 97.29L181.53 94.76Q165.79 94.76 147.81 98.41L147.81 98.41L147.81 114.99Q159.61 114.99 162.70 116.40L162.70 116.40Q165.23 117.52 166.35 119.49L166.35 119.49L166.91 122.58Q164.10 124.26 153.71 125.39L153.71 125.39L147.81 126.79L148.37 140.84Q159.05 137.47 169.16 138.31L169.16 138.31Q170.57 138.31 171.69 138.59L171.69 138.59Q180.40 111.90 183.21 97.29ZM135.72 143.37L136.00 129.04L118.86 130.73Q115.21 128.48 114.65 126.51L114.65 126.51L136.00 118.64L136.00 100.94L109.59 106.84Q104.53 108.53 100.60 110.21L100.60 110.21L108.19 148.71L135.72 143.37ZM85.71 68.06L85.71 68.06Q85.71 71.72 78.96 77.06L78.96 77.06L75.59 80.15Q64.35 92.51 62.10 95.60L62.10 95.60Q60.42 98.13 59.57 100.66L59.57 100.66Q59.57 104.59 68.00 116.11L68.00 116.11Q79.24 131.85 79.24 143.37L79.24 143.37Q79.24 151.24 74.47 156.30L74.47 156.30Q71.37 159.39 67.44 157.98L67.44 157.98Q60.13 150.40 40.46 135.22L40.46 135.22L40.18 133.82L56.48 138.31Q62.38 139.16 63.79 136.35L63.79 136.35Q63.79 128.48 55.64 113.87L55.64 113.87Q52.55 107.97 51.42 104.59L51.42 104.59L51.70 99.25L64.35 74.81Q64.35 72.56 61.54 70.59L61.54 70.59Q58.73 70.87 46.93 74.81L46.93 74.81Q46.37 75.09 45.52 75.37L45.52 75.37Q44.96 75.65 37.37 76.77L37.37 76.77Q32.60 77.62 32.60 80.43L32.60 80.43Q32.60 81.55 33.44 83.24L33.44 83.24L31.75 193.39L32.03 220.93Q30.91 241.16 25.01 243.97L25.01 243.97Q22.20 243.69 18.55 237.51L18.55 237.51Q11.80 227.39 16.02 209.41L16.02 209.41Q18.83 196.20 19.11 193.39L19.11 193.39Q25.01 152.08 22.48 110.49L22.48 110.49Q21.92 99.54 20.51 91.39L20.51 91.39Q20.23 88.30 14.89 70.87L14.89 70.87Q13.49 66.94 12.93 63.85L12.93 63.85Q19.11 60.20 29.22 68.06L29.22 68.06Q30.35 68.91 31.47 70.03L31.47 70.03Q51.14 67.78 67.16 56.54L67.16 56.54Q75.87 56.54 85.71 68.06Z" stroke="#000" fill="black" /></svg>